HIERARCHY
ROOT Hips
{
	OFFSET 0.000000 0.000000 0.000000
	CHANNELS 6 Xposition Yposition Zposition Xrotation Yrotation Zrotation
	JOINT LeftUpLeg_virtual
	{
		OFFSET 0.000000 0.000000 0.000000
		CHANNELS 3 Xrotation Yrotation Zrotation
		JOINT LeftUpLeg
		{
			OFFSET 15.427100 -6.655098 0.678600
			CHANNELS 3 Xrotation Yrotation Zrotation
			JOINT LeftLeg
			{
				OFFSET 4.081073 -39.591068 13.024000
				CHANNELS 3 Xrotation Yrotation Zrotation
				JOINT LeftFoot
				{
					OFFSET -4.081074 -37.707932 -15.979700
					CHANNELS 3 Xrotation Yrotation Zrotation
					JOINT LeftToeBase
					{
						OFFSET 5.346399 -15.068900 20.645000
						CHANNELS 3 Xrotation Yrotation Zrotation
						JOINT LeftToe_End
						{
							OFFSET 2.754700 0.931300 11.300900
							CHANNELS 3 Xrotation Yrotation Zrotation
							End Site
							{
								OFFSET 0 0 0
							}
						}
					}
				}
			}
		}
	}
	JOINT RightUpLeg_virtual
	{
		OFFSET 0.000000 0.000000 0.000000
		CHANNELS 3 Xrotation Yrotation Zrotation
		JOINT RightUpLeg
		{
			OFFSET -15.569500 -6.655098 0.678600
			CHANNELS 3 Xrotation Yrotation Zrotation
			JOINT RightLeg
			{
				OFFSET -4.081825 -39.591045 13.023800
				CHANNELS 3 Xrotation Yrotation Zrotation
				JOINT RightFoot
				{
					OFFSET 4.081824 -37.707954 -15.979600
					CHANNELS 3 Xrotation Yrotation Zrotation
					JOINT RightToeBase
					{
						OFFSET -5.346400 -15.068900 20.645000
						CHANNELS 3 Xrotation Yrotation Zrotation
						JOINT RightToe_End
						{
							OFFSET -2.754700 0.931300 11.300900
							CHANNELS 3 Xrotation Yrotation Zrotation
							End Site
							{
								OFFSET 0 0 0
							}
						}
					}
				}
			}
		}
	}
	JOINT Spine_virtual
	{
		OFFSET 0.000000 0.000000 0.000000
		CHANNELS 3 Xrotation Yrotation Zrotation
		JOINT Spine
		{
			OFFSET -0.279200 12.230698 -2.892100
			CHANNELS 3 Xrotation Yrotation Zrotation
			JOINT Spine1
			{
				OFFSET -0.232667 10.192268 -1.242267
				CHANNELS 3 Xrotation Yrotation Zrotation
				JOINT Spine1_split
				{
					OFFSET -0.232667 10.192268 -1.242267
					CHANNELS 3 Xrotation Yrotation Zrotation
					JOINT Spine2
					{
						OFFSET -0.232667 10.192268 -1.242267
						CHANNELS 3 Xrotation Yrotation Zrotation
						JOINT Neck_virtual
						{
							OFFSET 0.000000 0.000000 0.000000
							CHANNELS 3 Xrotation Yrotation Zrotation
							JOINT Neck
							{
								OFFSET -0.418800 17.814194 8.416900
								CHANNELS 3 Xrotation Yrotation Zrotation
								JOINT Head
								{
									OFFSET 0.000000 7.031097 3.806800
									CHANNELS 3 Xrotation Yrotation Zrotation
									JOINT HeadTop_End
									{
										OFFSET 0.000000 24.646606 12.978600
										CHANNELS 3 Xrotation Yrotation Zrotation
										End Site
										{
											OFFSET 0 0 0
										}
									}
								}
							}
						}
						JOINT LeftShoulder_virtual
						{
							OFFSET 0.000000 0.000000 0.000000
							CHANNELS 3 Xrotation Yrotation Zrotation
							JOINT LeftShoulder
							{
								OFFSET 8.476499 7.247704 -3.868750
								CHANNELS 3 Xrotation Yrotation Zrotation
								JOINT LeftShoulder_split
								{
									OFFSET 8.476499 7.247704 -3.868750
									CHANNELS 3 Xrotation Yrotation Zrotation
									JOINT LeftArm
									{
										OFFSET 9.308998 -2.777710 0.208600
										CHANNELS 3 Xrotation Yrotation Zrotation
										JOINT LeftForeArm
										{
											OFFSET 29.972298 0.000000 0.000000
											CHANNELS 3 Xrotation Yrotation Zrotation
											JOINT LeftHand
											{
												OFFSET 26.026505 0.000000 0.000000
												CHANNELS 3 Xrotation Yrotation Zrotation
												End Site
												{
													OFFSET 0 0 0
												}
											}
										}
									}
								}
							}
						}
						JOINT RightShoulder_virtual
						{
							OFFSET 0.000000 0.000000 0.000000
							CHANNELS 3 Xrotation Yrotation Zrotation
							JOINT RightShoulder
							{
								OFFSET -7.570500 7.247704 -3.868750
								CHANNELS 3 Xrotation Yrotation Zrotation
								JOINT RightShoulder_split
								{
									OFFSET -7.570500 7.247704 -3.868750
									CHANNELS 3 Xrotation Yrotation Zrotation
									JOINT RightArm
									{
										OFFSET -9.308998 -2.777710 0.208500
										CHANNELS 3 Xrotation Yrotation Zrotation
										JOINT RightForeArm
										{
											OFFSET -29.972300 0.000000 0.000000
											CHANNELS 3 Xrotation Yrotation Zrotation
											JOINT RightHand
											{
												OFFSET -26.026505 0.000000 0.000000
												CHANNELS 3 Xrotation Yrotation Zrotation
												End Site
												{
													OFFSET 0 0 0
												}
											}
										}
									}
								}
							}
						}
					}
				}
			}
		}
	}
}
MOTION
Frames: 4
Frame Time: 0.03333333
-0.455462 92.928764 -0.646919 0.000000 0.000000 0.000000 -5.601008 -3.204614 0.646455 0.007858 5.445761 8.563342 13.853392 10.463686 0.293276 -9.032424 4.467419 -9.684869 3.022203 0.462812 -1.688861 0.000000 0.000000 0.000000 -5.386448 -2.612430 0.550471 3.785724 -9.100684 -10.763097 13.071537 -7.309896 3.356311 -8.335148 -5.904134 4.987260 -2.233797 0.286561 -0.424716 0.000000 0.000000 0.000000 -4.904190 -3.257114 0.021698 3.521382 1.899639 -2.085768 1.281151 0.203319 0.158275 0.888637 -1.228856 0.139792 0.000000 0.000000 0.000000 0.773320 0.709021 -0.002738 3.105779 0.333223 -0.089220 18.298386 -11.471723 0.247747 0.000000 0.000000 0.000000 0.868460 0.524380 -0.000922 2.809196 -3.923412 -12.503569 -1.296054 -0.961261 -1.723491 -3.999298 -7.827697 -58.854074 -1.265321 -13.008664 0.360042 0.000000 0.000000 0.000000 0.840096 0.350481 0.037202 2.398206 0.716095 15.512765 -0.433046 1.930352 -2.138940 -1.572564 8.512963 64.809896 0.182091 15.790813 1.072431 0.000000 0.000000 0.000000 
-0.413854 92.937698 -0.949497 0.000000 0.000000 0.000000 -5.731055 -3.090352 0.680105 -0.064690 5.298026 8.516402 13.977085 10.353192 0.297685 -9.000598 4.293246 -9.799566 2.945601 0.456024 -1.652619 0.000000 0.000000 0.000000 -5.519585 -2.387643 0.577142 3.789112 -9.206750 -10.817857 12.984149 -7.276215 3.287341 -8.338988 -6.030236 4.902645 -1.812277 0.268025 -0.396634 0.000000 0.000000 0.000000 -4.958298 -2.964932 0.133557 3.576795 1.988142 -2.028324 1.299209 0.241287 0.134320 0.968136 -0.954934 0.223587 0.000000 0.000000 0.000000 0.722722 0.707540 -0.001085 3.128510 0.234273 -0.103674 18.282632 -11.540475 0.314032 0.000000 0.000000 0.000000 0.861093 0.547716 -0.039279 2.784959 -3.795550 -12.579853 -1.442313 -0.534426 -1.979298 -3.201723 -7.171320 -58.693400 -1.255935 -12.472147 0.383336 0.000000 0.000000 0.000000 0.875540 0.406235 0.012478 2.375577 0.901852 15.505694 -0.510726 2.306117 -2.326542 -2.270245 8.841230 64.767522 0.251057 16.407781 0.952823 0.000000 0.000000 0.000000 
-0.441877 92.859436 -1.309708 0.000000 0.000000 0.000000 -5.944975 -2.528269 0.811020 -0.290897 5.133624 8.382177 14.332527 10.187646 0.260309 -9.182302 3.973332 -9.795924 2.844863 0.442945 -1.586830 0.000000 0.000000 0.000000 -5.753153 -1.728417 0.697628 3.697335 -9.297268 -10.940744 13.324818 -7.260658 3.222966 -8.559637 -6.440746 4.763277 -1.572620 0.238220 -0.378464 0.000000 0.000000 0.000000 -5.167712 -2.376269 0.304579 3.762878 2.136979 -1.938165 1.330705 0.294047 0.123265 1.031532 -0.888088 0.257728 0.000000 0.000000 0.000000 0.683421 0.726440 0.016243 3.061497 0.099031 -0.109016 18.225416 -11.822442 0.476668 0.000000 0.000000 0.000000 0.876134 0.579909 -0.061004 2.757888 -3.705977 -12.617336 -1.637133 -0.365996 -2.037761 -2.212482 -6.044911 -58.734006 -1.150237 -11.588597 0.426333 0.000000 0.000000 0.000000 0.928551 0.480788 0.008024 2.335826 1.132447 15.537765 -0.437672 2.422638 -2.393647 -3.278111 9.680167 64.447220 0.334605 17.425930 0.834077 0.000000 0.000000 0.000000 
-0.547168 92.720222 -1.660320 0.000000 0.000000 0.000000 -6.213488 -1.631241 0.998667 -0.621995 4.980857 8.205338 14.884773 9.981016 0.198126 -9.574236 3.562993 -9.673403 2.750733 0.425500 -1.509843 0.000000 0.000000 0.000000 -6.075657 -0.790648 0.884788 3.548386 -9.355340 -11.085490 14.003117 -7.259216 3.157319 -9.001188 -7.081474 4.562558 -1.447178 0.196497 -0.366682 0.000000 0.000000 0.000000 -5.486226 -1.609569 0.496504 4.038705 2.331471 -1.838591 1.360504 0.350304 0.125140 1.065501 -0.906290 0.254443 0.000000 0.000000 0.000000 0.665512 0.761634 0.045468 2.915304 -0.051997 -0.111225 18.151472 -12.278822 0.717148 0.000000 0.000000 0.000000 0.915173 0.619383 -0.055070 2.743153 -3.652655 -12.598255 -1.743764 -0.504719 -1.930450 -1.187097 -4.683106 -58.944587 -0.969544 -10.626106 0.465119 0.000000 0.000000 0.000000 0.987090 0.557456 0.025009 2.282727 1.371296 15.638586 -0.281723 2.297963 -2.319341 -4.320002 10.765228 63.935475 0.428122 18.675419 0.732964 0.000000 0.000000 0.000000 
